<svg width="23" height="23" viewBox="0 0 23 23" fill="none" xmlns="http://www.w3.org/2000/svg">
<path d="M11.726 6.99393C11.7256 6.98126 11.7252 6.96859 11.7241 6.95584C11.723 6.94304 11.7214 6.93041 11.7197 6.91782C11.7188 6.91131 11.7185 6.90485 11.7175 6.8983L11.0161 2.6901C11.001 2.5992 10.9681 2.51217 10.9194 2.43397C10.8707 2.35577 10.807 2.28795 10.732 2.23437C10.6571 2.18079 10.5723 2.14251 10.4825 2.12171C10.3927 2.10091 10.2998 2.098 10.2089 2.11315C10.118 2.1283 10.031 2.16122 9.9528 2.21001C9.87463 2.2588 9.80685 2.32252 9.75332 2.39752C9.69979 2.47251 9.66156 2.55733 9.64082 2.6471C9.62008 2.73688 9.61723 2.82987 9.63244 2.92075L10.1977 6.31226H8.57085V2.80542C8.57085 2.61941 8.49696 2.44101 8.36542 2.30948C8.23389 2.17795 8.0555 2.10406 7.86948 2.10406C7.68347 2.10406 7.50507 2.17795 7.37354 2.30948C7.24201 2.44101 7.16812 2.61941 7.16812 2.80542V6.31226H5.54128L6.10652 2.92075C6.12173 2.82987 6.11888 2.73688 6.09814 2.6471C6.0774 2.55733 6.03917 2.47251 5.98564 2.39752C5.93211 2.32252 5.86433 2.2588 5.78616 2.21001C5.708 2.16122 5.62099 2.1283 5.5301 2.11315C5.43921 2.098 5.34622 2.10091 5.25646 2.12171C5.16669 2.14251 5.08191 2.18079 5.00694 2.23437C4.93198 2.28795 4.86831 2.35577 4.81957 2.43397C4.77082 2.51217 4.73797 2.5992 4.72288 2.6901L4.02151 6.8983C4.02044 6.90485 4.02018 6.91131 4.01924 6.91782C4.01753 6.93041 4.01594 6.94304 4.01487 6.95584C4.0138 6.96859 4.01333 6.98126 4.01294 6.99393C4.01278 7.00053 4.01196 7.00699 4.01196 7.01363C4.01196 7.01988 4.01239 7.026 4.01243 7.0322C4.01256 7.03653 4.01256 7.04081 4.01278 7.04509C4.02125 7.94056 4.34057 8.80526 4.91614 9.49131C5.49171 10.1773 6.28775 10.6421 7.16812 10.8061V19.6382C7.16812 19.8243 7.24201 20.0026 7.37354 20.1342C7.50507 20.2657 7.68347 20.3396 7.86948 20.3396C8.0555 20.3396 8.23389 20.2657 8.36542 20.1342C8.49696 20.0026 8.57085 19.8243 8.57085 19.6382V10.8061C9.45122 10.6421 10.2473 10.1773 10.8228 9.4913C11.3984 8.80526 11.7177 7.94056 11.7262 7.04509C11.7264 7.04081 11.7264 7.03653 11.7265 7.0322C11.7266 7.026 11.727 7.01988 11.727 7.01363C11.727 7.00699 11.7262 7.00053 11.726 6.99393Z" fill="#3F3B6C"/>
<path d="M19.0907 2.79308C19.0905 2.77861 19.0897 2.76414 19.0885 2.74963C19.0877 2.73978 19.0868 2.73002 19.0856 2.72031C19.0841 2.70819 19.0822 2.69608 19.0801 2.68396C19.078 2.67176 19.0756 2.65969 19.0729 2.64775C19.0706 2.63824 19.0682 2.62878 19.0656 2.61932C19.0617 2.60524 19.0575 2.59137 19.0527 2.57767C19.0514 2.57373 19.0505 2.56975 19.0491 2.56581C19.0475 2.56157 19.0455 2.55763 19.0439 2.55344C19.0386 2.5397 19.0329 2.5262 19.0268 2.51294C19.0228 2.50429 19.0187 2.49576 19.0144 2.48734C19.0087 2.47604 19.0026 2.46493 18.9962 2.454C18.9906 2.44419 18.9848 2.43456 18.9787 2.4251C18.9729 2.4162 18.9669 2.40755 18.9607 2.3989C18.9533 2.38846 18.9458 2.37823 18.9378 2.36829C18.932 2.36097 18.9259 2.35391 18.9198 2.34685C18.9111 2.33674 18.9022 2.32677 18.8929 2.31722C18.8864 2.31055 18.8796 2.30413 18.8728 2.2977C18.8635 2.2888 18.8541 2.28007 18.8443 2.27172C18.8364 2.265 18.8282 2.25866 18.82 2.25228C18.8109 2.24518 18.8017 2.23812 18.7922 2.23144C18.7825 2.22463 18.7724 2.21825 18.7624 2.21196C18.7539 2.20661 18.7453 2.20121 18.7366 2.19625C18.7251 2.18974 18.7135 2.18375 18.7016 2.17788C18.6936 2.17386 18.6855 2.16984 18.6772 2.16611C18.6648 2.16055 18.6522 2.1555 18.6394 2.15062C18.6309 2.1474 18.6225 2.14419 18.6138 2.14128C18.6016 2.13713 18.5891 2.13349 18.5766 2.13002C18.5666 2.12724 18.5566 2.12463 18.5465 2.12228C18.5354 2.11975 18.5241 2.11757 18.5128 2.11556C18.5005 2.11333 18.4882 2.11145 18.4757 2.10991C18.4662 2.10875 18.4566 2.10781 18.4469 2.10699C18.4326 2.10584 18.4182 2.10511 18.4037 2.10481C18.399 2.10473 18.3946 2.10413 18.39 2.10413C18.3857 2.10413 18.3816 2.10468 18.3774 2.10477C18.363 2.10502 18.3486 2.1058 18.3342 2.10695C18.3243 2.10772 18.3145 2.10862 18.3047 2.10982C18.2926 2.11132 18.2805 2.1132 18.2684 2.11534C18.2562 2.11748 18.2442 2.11984 18.2322 2.12262C18.2227 2.1248 18.2132 2.12729 18.2038 2.1299C18.1897 2.13375 18.1758 2.13799 18.1621 2.14274C18.1582 2.14407 18.1542 2.14492 18.1503 2.14633C18.1416 2.1495 18.1331 2.15327 18.1245 2.15648C18.1212 2.1578 18.1179 2.15896 18.1147 2.16033C16.3078 2.83939 14.8608 5.05604 13.8138 8.75127C13.3388 10.4564 12.9943 12.1952 12.783 13.9526C12.7726 14.0505 12.7828 14.1494 12.8131 14.2431C12.8433 14.3367 12.893 14.4229 12.9587 14.4961C13.0245 14.5693 13.1049 14.6279 13.1948 14.6679C13.2847 14.708 13.382 14.7287 13.4804 14.7287H17.6886V19.6383C17.6886 19.8243 17.7625 20.0027 17.894 20.1342C18.0255 20.2658 18.2039 20.3397 18.39 20.3397C18.576 20.3397 18.7544 20.2658 18.8859 20.1342C19.0174 20.0027 19.0913 19.8243 19.0913 19.6383V2.80549C19.0913 2.8013 19.0908 2.79727 19.0907 2.79308Z" fill="#3F3B6C"/>
</svg>
