<svg width="23" height="23" viewBox="0 0 23 23" fill="none" xmlns="http://www.w3.org/2000/svg">
<path d="M9.11812 1.40273H13.3263C13.5123 1.40273 13.6907 1.32884 13.8223 1.19731C13.9538 1.06578 14.0277 0.887381 14.0277 0.701367C14.0277 0.515353 13.9538 0.336958 13.8223 0.205426C13.6907 0.0738939 13.5123 0 13.3263 0L9.11812 0C8.9321 0 8.75371 0.0738939 8.62217 0.205426C8.49064 0.336958 8.41675 0.515353 8.41675 0.701367C8.41675 0.887381 8.49064 1.06578 8.62217 1.19731C8.75371 1.32884 8.9321 1.40273 9.11812 1.40273Z" fill="#3F3B6C"/>
<path d="M11.2221 2.80554C9.55747 2.80554 7.93024 3.29916 6.54617 4.22396C5.1621 5.14877 4.08335 6.46323 3.44633 8.00113C2.80931 9.53903 2.64264 11.2313 2.96739 12.8639C3.29214 14.4965 4.09372 15.9962 5.27078 17.1732C6.44783 18.3503 7.94749 19.1519 9.58012 19.4766C11.2127 19.8014 12.905 19.6347 14.4429 18.9977C15.9808 18.3607 17.2953 17.2819 18.2201 15.8979C19.1449 14.5138 19.6385 12.8866 19.6385 11.2219C19.636 8.99055 18.7484 6.85127 17.1706 5.27344C15.5927 3.6956 13.4535 2.80807 11.2221 2.80554ZM15.1896 8.24628L11.718 11.7179C11.6529 11.783 11.5756 11.8347 11.4905 11.8699C11.4054 11.9052 11.3142 11.9233 11.2221 11.9233C11.13 11.9233 11.0388 11.9052 10.9537 11.87C10.8686 11.8347 10.7913 11.783 10.7261 11.7179C10.661 11.6528 10.6093 11.5755 10.5741 11.4904C10.5388 11.4053 10.5207 11.3141 10.5207 11.222C10.5207 11.1299 10.5388 11.0387 10.5741 10.9536C10.6093 10.8685 10.661 10.7912 10.7261 10.726L14.1977 7.25441C14.2628 7.18928 14.3401 7.13762 14.4252 7.10237C14.5103 7.06712 14.6015 7.04898 14.6936 7.04897C14.7857 7.04897 14.877 7.06711 14.962 7.10236C15.0471 7.1376 15.1245 7.18926 15.1896 7.25439C15.2547 7.31952 15.3064 7.39683 15.3416 7.48193C15.3769 7.56702 15.395 7.65822 15.395 7.75033C15.395 7.84243 15.3769 7.93364 15.3416 8.01873C15.3064 8.10383 15.2547 8.18115 15.1896 8.24628H15.1896Z" fill="#3F3B6C"/>
</svg>
