<svg width="170" height="41" viewBox="0 0 170 41" fill="none" xmlns="http://www.w3.org/2000/svg">
<path d="M10.88 30.8C8.35 30.8 6.28 30.27 4.68 29.2C3.08 28.13 1.89 26.69 1.12 24.88C0.37 23.04 0 20.99 0 18.72C0 16.45 0.35 14.48 1.04 12.48C1.73 10.45 2.69 8.65 3.92 7.08C5.17 5.51 6.64 4.27 8.32 3.36C10 2.43 11.83 1.96 13.8 1.96C15.77 1.96 17.21 2.39 18.04 3.24C18.87 4.07 19.28 5.2 19.28 6.64C19.28 7.17 19.2 7.68 19.04 8.16C18.88 8.64 18.63 9.03 18.28 9.32C17.96 9.61 17.56 9.76 17.08 9.76C16.68 9.76 16.4 9.65 16.24 9.44C16.11 9.23 16.03 8.96 16 8.64C15.97 8.29 15.96 7.92 15.96 7.52C15.96 7.17 15.91 6.85 15.8 6.56C15.69 6.24 15.47 5.99 15.12 5.8C14.77 5.61 14.24 5.52 13.52 5.52C12.05 5.52 10.71 5.89 9.48 6.64C8.25 7.39 7.2 8.39 6.32 9.64C5.44 10.89 4.76 12.31 4.28 13.88C3.8 15.45 3.56 17.08 3.56 18.76C3.56 21.53 4.23 23.67 5.56 25.16C6.89 26.65 8.69 27.4 10.96 27.4C12.19 27.4 13.19 27.27 13.96 27C14.76 26.71 15.4 26.36 15.88 25.96C16.39 25.53 16.8 25.12 17.12 24.72C17.44 24.29 17.73 23.95 18 23.68C18.29 23.41 18.63 23.28 19 23.28C19.45 23.28 19.77 23.41 19.96 23.68C20.17 23.95 20.28 24.28 20.28 24.68C20.28 25.21 20.08 25.83 19.68 26.52C19.28 27.21 18.68 27.89 17.88 28.56C17.11 29.2 16.13 29.73 14.96 30.16C13.79 30.59 12.43 30.8 10.88 30.8ZM29.74 30.8C28.54 30.8 27.49 30.52 26.58 29.96C25.7 29.4 25.02 28.61 24.54 27.6C24.06 26.59 23.82 25.4 23.82 24.04C23.82 22.76 24.02 21.47 24.42 20.16C24.82 18.85 25.38 17.61 26.1 16.44C26.82 15.27 27.67 14.23 28.66 13.32C29.67 12.41 30.78 11.71 31.98 11.2C33.18 10.67 34.46 10.4 35.82 10.4C36.43 10.4 36.94 10.56 37.34 10.88C37.74 11.2 37.94 11.68 37.94 12.32C37.94 12.64 37.83 12.92 37.62 13.16C37.43 13.37 37.14 13.51 36.74 13.56C34.87 13.8 33.23 14.45 31.82 15.52C30.43 16.59 29.35 17.88 28.58 19.4C27.81 20.92 27.42 22.51 27.42 24.16C27.42 24.93 27.49 25.64 27.62 26.28C27.75 26.89 28.05 27.69 28.5 28.68L26.42 25.92C27.03 26.53 27.54 26.93 27.94 27.12C28.37 27.31 28.94 27.4 29.66 27.4C31.37 27.4 32.89 26.39 34.22 24.36C35.58 22.33 36.57 19.39 37.18 15.52C37.29 15.01 37.47 14.63 37.74 14.36C38.01 14.07 38.37 13.92 38.82 13.92C39.46 13.92 40.01 14.17 40.46 14.68C40.91 15.16 41.19 15.8 41.3 16.6C41.54 18.15 41.79 19.53 42.06 20.76C42.35 21.96 42.77 23.11 43.3 24.2C43.83 25.27 44.55 26.4 45.46 27.6C45.7 27.87 45.83 28.17 45.86 28.52C45.89 28.87 45.83 29.21 45.7 29.56C45.59 29.88 45.41 30.15 45.14 30.36C44.9 30.57 44.61 30.68 44.26 30.68C43.89 30.68 43.58 30.6 43.34 30.44C43.1 30.28 42.87 30.08 42.66 29.84C42.15 29.12 41.67 28.41 41.22 27.72C40.77 27 40.35 26.19 39.98 25.28C39.61 24.35 39.29 23.25 39.02 22C38.75 20.72 38.57 19.21 38.46 17.48L39.78 17.44C39.41 19.89 38.87 21.99 38.18 23.72C37.49 25.43 36.67 26.8 35.74 27.84C34.81 28.85 33.82 29.6 32.78 30.08C31.77 30.56 30.75 30.8 29.74 30.8ZM54.82 30.84C54.21 30.84 53.61 30.75 53.02 30.56C52.46 30.4 51.94 30.07 51.46 29.56C51.01 29.05 50.61 28.32 50.26 27.36C49.91 26.4 49.63 25.13 49.42 23.56C49.23 21.99 49.14 20.04 49.14 17.72C49.14 15.4 49.18 13.51 49.26 11.8C49.37 10.07 49.5 8.48 49.66 7.04C49.85 5.57 50.06 4.13 50.3 2.72C50.49 1.71 50.71 1 50.98 0.6C51.25 0.2 51.61 0 52.06 0C52.59 0 53.02 0.23 53.34 0.68C53.66 1.13 53.82 1.89 53.82 2.96C53.82 3.71 53.77 4.52 53.66 5.4C53.55 6.28 53.42 7.31 53.26 8.48C53.13 9.65 53.01 11.05 52.9 12.68C52.79 14.28 52.74 16.23 52.74 18.52C52.74 20.25 52.79 21.71 52.9 22.88C53.03 24.03 53.19 24.93 53.38 25.6C53.59 26.27 53.85 26.75 54.14 27.04C54.43 27.31 54.73 27.44 55.02 27.44C55.39 27.44 55.69 27.4 55.9 27.32C56.11 27.24 56.29 27.17 56.42 27.12C56.58 27.04 56.75 27 56.94 27C57.42 27 57.74 27.13 57.9 27.4C58.06 27.67 58.14 27.99 58.14 28.36C58.14 29.11 57.81 29.71 57.14 30.16C56.47 30.61 55.7 30.84 54.82 30.84ZM92.04 30.88C91.64 30.88 91.29 30.76 91 30.52C90.71 30.28 90.48 29.93 90.32 29.48C90.16 29.03 90.08 28.52 90.08 27.96C90.08 26.23 90.05 24.52 90 22.84C89.95 21.16 89.84 19.61 89.68 18.2C89.55 16.79 89.35 15.63 89.08 14.72C88.92 14.11 88.8 13.63 88.72 13.28C88.67 12.93 88.64 12.59 88.64 12.24C88.64 11.76 88.76 11.37 89 11.08C89.27 10.76 89.67 10.6 90.2 10.6C90.68 10.6 91.11 10.83 91.48 11.28C91.88 11.71 92.21 12.47 92.48 13.56C92.75 14.63 92.93 16.12 93.04 18.04C93.15 19.96 93.17 22.39 93.12 25.32L91.84 24.16C92.03 21.57 92.44 19.4 93.08 17.64C93.75 15.85 94.53 14.43 95.44 13.36C96.37 12.29 97.36 11.52 98.4 11.04C99.44 10.56 100.47 10.32 101.48 10.32C102.15 10.32 102.6 10.48 102.84 10.8C103.11 11.12 103.24 11.51 103.24 11.96C103.24 12.33 103.12 12.69 102.88 13.04C102.64 13.36 102.23 13.6 101.64 13.76C100.25 14.08 99.11 14.65 98.2 15.48C97.29 16.28 96.55 17.29 95.96 18.52C95.4 19.72 94.96 21.09 94.64 22.64C94.35 24.19 94.13 25.87 94 27.68C93.95 28.53 93.84 29.2 93.68 29.68C93.55 30.13 93.35 30.44 93.08 30.6C92.81 30.79 92.47 30.88 92.04 30.88ZM115.29 40.84C113.69 40.84 112.32 40.69 111.17 40.4C110.02 40.13 109.14 39.75 108.53 39.24C107.94 38.73 107.65 38.12 107.65 37.4C107.65 36.97 107.77 36.63 108.01 36.36C108.25 36.12 108.62 36 109.13 36C109.48 36 109.78 36.07 110.05 36.2C110.34 36.33 110.68 36.48 111.05 36.64C111.45 36.8 111.97 36.95 112.61 37.08C113.28 37.21 114.13 37.28 115.17 37.28C116.48 37.28 117.49 37 118.21 36.44C118.96 35.91 119.48 35.13 119.77 34.12C120.09 33.11 120.25 31.93 120.25 30.6C120.25 29.83 120.21 29.07 120.13 28.32C120.08 27.57 120.01 26.77 119.93 25.92C119.85 25.07 119.77 24.08 119.69 22.96C119.61 21.81 119.56 20.47 119.53 18.92L120.89 20.08C120.41 21.92 119.85 23.43 119.21 24.6C118.6 25.75 117.93 26.64 117.21 27.28C116.52 27.89 115.84 28.32 115.17 28.56C114.5 28.77 113.88 28.88 113.29 28.88C111.8 28.88 110.52 28.45 109.45 27.6C108.38 26.75 107.56 25.43 106.97 23.64C106.38 21.85 106.09 19.53 106.09 16.68C106.09 14.89 106.18 13.55 106.37 12.64C106.56 11.73 106.81 11.12 107.13 10.8C107.48 10.48 107.85 10.32 108.25 10.32C108.68 10.32 109.02 10.43 109.29 10.64C109.56 10.83 109.74 11.15 109.85 11.6C109.96 12.05 109.98 12.67 109.93 13.44C109.85 15.12 109.82 16.69 109.85 18.16C109.9 19.63 110.05 20.91 110.29 22C110.53 23.07 110.88 23.91 111.33 24.52C111.78 25.11 112.37 25.4 113.09 25.4C114.21 25.4 115.18 24.83 116.01 23.68C116.86 22.51 117.56 20.93 118.09 18.96C118.65 16.96 119.06 14.72 119.33 12.24C119.41 11.49 119.54 11 119.73 10.76C119.94 10.49 120.29 10.36 120.77 10.36C121.06 10.36 121.34 10.43 121.61 10.56C121.9 10.69 122.14 10.92 122.33 11.24C122.54 11.53 122.69 11.95 122.77 12.48C122.88 12.99 122.89 13.63 122.81 14.4C122.68 15.76 122.62 16.95 122.65 17.96C122.68 18.97 122.74 19.93 122.85 20.84C122.96 21.72 123.08 22.63 123.21 23.56C123.34 24.47 123.46 25.48 123.57 26.6C123.68 27.72 123.73 29.05 123.73 30.6C123.73 32.39 123.52 33.92 123.09 35.2C122.69 36.51 122.1 37.57 121.33 38.4C120.58 39.23 119.69 39.84 118.65 40.24C117.64 40.64 116.52 40.84 115.29 40.84ZM134.36 30.8C132.84 30.8 131.65 30.6 130.8 30.2C129.95 29.8 129.35 29.28 129 28.64C128.65 28 128.48 27.36 128.48 26.72C128.48 26.08 128.63 25.52 128.92 25.04C129.21 24.53 129.69 24.16 130.36 23.92C133.13 22.77 135.47 21.64 137.36 20.52C139.25 19.4 140.68 18.28 141.64 17.16C142.63 16.04 143.11 14.95 143.08 13.88L143.96 15.8C143.59 15.29 143.16 14.91 142.68 14.64C142.23 14.35 141.68 14.13 141.04 14C140.4 13.87 139.64 13.8 138.76 13.8C137.29 13.8 136.01 13.91 134.92 14.12C133.83 14.33 132.88 14.55 132.08 14.76C131.31 14.97 130.67 15.08 130.16 15.08C129.95 15.08 129.72 14.99 129.48 14.8C129.24 14.61 129.04 14.36 128.88 14.04C128.75 13.72 128.68 13.39 128.68 13.04C128.68 12.64 128.76 12.33 128.92 12.12C129.11 11.88 129.43 11.71 129.88 11.6C131.16 11.23 132.56 10.92 134.08 10.68C135.63 10.44 137.08 10.32 138.44 10.32C139.96 10.32 141.23 10.45 142.24 10.72C143.25 10.99 144.07 11.33 144.68 11.76C145.29 12.19 145.72 12.68 145.96 13.24C146.23 13.8 146.36 14.36 146.36 14.92C146.36 15.69 146.11 16.55 145.6 17.48C145.09 18.39 144.25 19.35 143.08 20.36C141.93 21.37 140.4 22.43 138.48 23.52C136.56 24.61 134.17 25.72 131.32 26.84L132.04 25.96C132.28 26.55 132.61 26.93 133.04 27.12C133.49 27.28 134.12 27.36 134.92 27.36C135.88 27.36 136.87 27.32 137.88 27.24C138.92 27.16 139.97 27.08 141.04 27C142.11 26.89 143.16 26.84 144.2 26.84C145.24 26.84 146.01 27.04 146.6 27.44C147.21 27.84 147.52 28.35 147.52 28.96C147.52 29.36 147.37 29.71 147.08 30C146.81 30.27 146.4 30.4 145.84 30.4C144.83 30.4 143.65 30.43 142.32 30.48C140.99 30.56 139.63 30.63 138.24 30.68C136.88 30.76 135.59 30.8 134.36 30.8ZM159.69 30.8C157.66 30.8 156.01 30.43 154.73 29.68C153.48 28.91 152.54 27.87 151.93 26.56C151.34 25.23 151.05 23.71 151.05 22C151.05 20.64 151.29 19.28 151.77 17.92C152.28 16.53 153 15.28 153.93 14.16C154.86 13.01 155.98 12.09 157.29 11.4C158.6 10.71 160.06 10.36 161.69 10.36C162.94 10.36 164.04 10.59 164.97 11.04C165.9 11.49 166.62 12.17 167.13 13.08C167.66 13.96 167.93 15.08 167.93 16.44C167.93 17.88 167.49 19.11 166.61 20.12C165.76 21.11 164.58 21.87 163.09 22.4C161.6 22.93 159.92 23.2 158.05 23.2C156.45 23.2 155.33 22.99 154.69 22.56C154.05 22.11 153.73 21.61 153.73 21.08C153.73 20.76 153.81 20.53 153.97 20.4C154.13 20.24 154.4 20.16 154.77 20.16C155.06 20.16 155.42 20.21 155.85 20.32C156.3 20.4 156.94 20.44 157.77 20.44C159.1 20.44 160.26 20.28 161.25 19.96C162.26 19.61 163.06 19.13 163.65 18.52C164.24 17.91 164.53 17.2 164.53 16.4C164.53 15.49 164.3 14.81 163.85 14.36C163.4 13.91 162.65 13.68 161.61 13.68C160.57 13.68 159.61 13.92 158.73 14.4C157.88 14.88 157.13 15.53 156.49 16.36C155.88 17.19 155.4 18.13 155.05 19.2C154.7 20.24 154.53 21.33 154.53 22.48C154.53 23.44 154.69 24.31 155.01 25.08C155.33 25.83 155.85 26.44 156.57 26.92C157.29 27.37 158.26 27.6 159.49 27.6C160.93 27.6 162.13 27.43 163.09 27.08C164.08 26.73 164.89 26.35 165.53 25.92C166.17 25.47 166.7 25.08 167.13 24.76C167.58 24.41 168 24.24 168.37 24.24C168.74 24.24 169 24.35 169.13 24.56C169.26 24.77 169.33 25.12 169.33 25.6C169.33 26.13 169.06 26.71 168.53 27.32C168.02 27.91 167.32 28.47 166.41 29C165.5 29.53 164.48 29.97 163.33 30.32C162.18 30.64 160.97 30.8 159.69 30.8Z" fill="#3F3B6C"/>
<path d="M77.2403 5.87034C75.3503 6.21034 73.8103 7.51034 73.2303 9.27034C73.0303 9.87034 73.0403 9.85034 72.9903 9.75034C72.8503 9.51034 72.5303 9.13034 72.3603 9.02034C71.7603 8.61034 70.9103 8.81034 70.5803 9.42034C70.4703 9.63034 70.4403 9.74034 70.4403 10.0003C70.4403 10.3703 70.5003 10.5403 70.8703 11.2003C71.1103 11.6503 71.6503 12.8403 71.6103 12.8703C71.6103 12.8803 71.4903 12.8603 71.3803 12.8203C69.7903 12.2503 68.0603 12.5503 66.4803 13.6603C66.0903 13.9303 65.3703 14.6303 65.1403 14.9403C64.9303 15.2303 64.9303 15.4803 65.1403 15.6903C65.2703 15.8203 65.3203 15.8403 65.5003 15.8103C65.6803 15.7903 65.7403 15.7403 65.9203 15.5203C66.8703 14.3903 68.0103 13.7203 69.3303 13.5303C69.9903 13.4303 70.6903 13.5703 71.6703 13.9803L72.0603 14.1503L72.1203 14.4003C72.1903 14.7203 72.1603 14.7403 71.6503 14.6503C70.9103 14.5203 70.8303 14.5303 70.6703 14.6903C70.4703 14.8903 70.4703 15.1403 70.6703 15.3303C70.8603 15.5203 71.4003 15.6503 72.0003 15.6503C72.7803 15.6503 73.2203 15.4603 74.2603 14.7203C74.9703 14.2103 75.3903 13.9803 76.0403 13.7503C76.7103 13.5203 77.2603 13.4503 77.7803 13.5303C79.6603 13.8003 81.2803 15.1303 82.0403 17.0103C82.4103 17.9203 82.5303 18.6603 82.5303 19.9303C82.5303 21.2803 82.3703 22.1803 81.8903 23.6703C81.3403 25.3603 80.7303 26.5303 79.7003 27.8903C78.9303 28.9103 78.4603 29.3603 77.8703 29.6403C77.3803 29.8703 77.0203 29.8803 76.4003 29.6603C74.7203 29.0403 74.3803 28.9603 73.5703 28.9603C72.9403 28.9603 72.4503 29.0503 71.7403 29.3003C70.4903 29.7303 70.3003 29.8003 70.1003 29.8203C69.6403 29.8703 68.9903 29.5703 68.4303 29.0303C67.8603 28.4703 66.9103 27.2003 66.4203 26.3403C65.7003 25.0803 65.0603 23.3103 64.7903 21.8703C64.5803 20.7503 64.5603 19.9903 64.6703 18.5603C64.6903 18.2937 64.6503 18.1103 64.5503 18.0103C64.2903 17.7403 63.8803 17.8503 63.7603 18.2203C63.6603 18.5403 63.5903 19.5403 63.6203 20.2803C63.7203 22.6403 64.6803 25.5703 66.0403 27.5803C67.4503 29.6803 68.4503 30.5603 69.6703 30.7703C70.1203 30.8503 70.5403 30.7703 71.6403 30.3703C72.6303 30.0103 73.0003 29.9303 73.6103 29.9303C74.1803 29.9303 74.5503 30.0203 75.5503 30.3803C76.3403 30.6603 76.8703 30.8003 77.1703 30.8003C77.4703 30.8003 78.1003 30.6203 78.4403 30.4303C78.9103 30.1703 79.3603 29.7903 79.8303 29.2503C81.0303 27.8503 81.7803 26.6103 82.4503 24.9603C82.9203 23.7703 83.2503 22.5803 83.4203 21.4803C83.5503 20.6203 83.5403 18.9603 83.4003 18.1803C83.2003 17.0903 82.7003 15.8903 82.1103 15.1003C81.7403 14.6003 80.9803 13.8603 80.5003 13.5503C79.3703 12.8003 78.0103 12.4103 76.9303 12.5303C76.3603 12.6003 75.9303 12.7203 75.2003 13.0203L74.6103 13.2603L74.4603 12.7903C74.3803 12.5303 74.3203 12.3103 74.3303 12.3003C74.3303 12.2903 74.5503 12.2603 74.8003 12.2403C75.9803 12.1203 77.1503 11.5803 78.0103 10.7203C78.9903 9.75034 79.4803 8.62034 79.4803 7.32034C79.4803 6.45034 79.3703 6.05034 79.1103 5.92034C78.8703 5.81034 77.8203 5.78034 77.2903 5.87034H77.2403ZM78.4503 7.27034C78.4503 8.36034 78.0403 9.29034 77.2203 10.0803C76.4903 10.7803 75.5503 11.2003 74.4903 11.3003C73.9303 11.3503 73.9103 11.3403 73.9103 10.9203C73.9103 9.07034 75.2303 7.38034 77.0403 6.93034C77.4903 6.81034 77.6003 6.80034 78.0803 6.79034H78.4603V7.28034L78.4503 7.27034ZM71.7903 9.83034C72.0303 10.0003 72.8903 11.5503 73.2403 12.4503C73.4103 12.8903 73.6603 13.7103 73.6603 13.8403C73.6603 13.9203 73.1103 14.3103 73.0703 14.2603C73.0503 14.2403 72.9803 14.0003 72.9103 13.7303C72.6903 12.8603 72.1303 11.4703 71.6803 10.6703C71.3903 10.1703 71.3303 9.90034 71.5003 9.81034C71.6103 9.74034 71.6703 9.75034 71.7903 9.83034Z" fill="#3F3B6C" stroke="#3F3B6C" stroke-width="1.4"/>
<path d="M80.2498 23.4102C80.1798 23.4702 79.9898 23.7902 79.8098 24.1702C79.6398 24.5302 79.3398 25.0602 79.1498 25.3602C78.8598 25.8002 78.7998 25.9302 78.7998 26.0902C78.7998 26.2502 78.8298 26.3102 78.9498 26.4202C79.1298 26.5702 79.3598 26.5902 79.5298 26.4602C79.8098 26.2702 80.8898 24.3702 80.9798 23.9202C81.0698 23.4902 80.5898 23.1602 80.2498 23.4202V23.4102Z" fill="#3F3B6C" stroke="#3F3B6C" stroke-width="0.2"/>
<path d="M77.92 27.2204C77.86 27.2404 77.77 27.3204 77.71 27.4004C77.48 27.7004 77.71 28.1504 78.09 28.1504C78.55 28.1504 78.74 27.6004 78.39 27.3004C78.24 27.1704 78.11 27.1504 77.93 27.2204H77.92Z" fill="#3F3B6C" stroke="#3F3B6C" stroke-width="0.2"/>
</svg>
