<svg width="31" height="31" viewBox="0 0 31 31" fill="none" xmlns="http://www.w3.org/2000/svg">
<path d="M20.8039 4.72096C19.7152 4.71909 18.6412 4.97129 17.6671 5.4575C16.693 5.94371 15.8459 6.65051 15.193 7.52169C14.3087 6.3452 13.0769 5.47655 11.6718 5.03868C10.2667 4.60081 8.75954 4.61587 7.36349 5.08175C5.96743 5.54762 4.75323 6.44071 3.89269 7.63465C3.03215 8.82858 2.56886 10.2629 2.56836 11.7346C2.56836 20.135 14.2392 26.7673 14.736 27.0455C14.8756 27.1237 15.033 27.1647 15.193 27.1647C15.353 27.1647 15.5103 27.1237 15.6499 27.0455C17.7964 25.7883 19.811 24.3184 21.6633 22.658C25.7469 18.9827 27.8176 15.3075 27.8176 11.7346C27.8155 9.87513 27.0759 8.0924 25.761 6.77754C24.4461 5.46268 22.6634 4.72307 20.8039 4.72096Z" fill="#DBE2E5"/>
</svg>
